<svg xmlns="http://www.w3.org/2000/svg" width="72" height="73" fill="none"><path fill="#fff" d="M34.714 0c-.528 0-.93.003-1.074.021-.363.036-.727.07-1.092.1-10.221.917-19.8 6.434-25.867 14.916a35.626 35.626 0 0 0-6.357 15.73C.036 32.742 0 33.327 0 36.006c0 2.68.036 3.268.324 5.245C2.28 54.77 11.904 66.129 24.952 70.338c2.337.75 4.8 1.266 7.602 1.575 1.09.12 5.806.12 6.898 0 4.833-.534 8.931-1.731 12.97-3.792.62-.318.74-.402.656-.474-.06-.04-2.7-3.58-5.865-7.86l-5.757-7.777-7.213-10.674c-2.4-3.572-4.821-7.128-7.266-10.669-.027-.006-.054 4.738-.069 10.53-.02 10.141-.03 10.546-.156 10.786-.122.282-.341.51-.618.642-.225.111-.42.132-1.485.132h-1.221l-.324-.204a1.314 1.314 0 0 1-.471-.513l-.15-.318.018-14.11.02-14.115.217-.276c.147-.172.324-.318.522-.429.288-.141.402-.153 1.62-.153 1.434 0 1.674.054 2.046.462 2.92 4.345 5.815 8.706 8.686 13.084 4.732 7.172 9.467 14.342 14.205 21.51l5.7 8.638.288-.19a36.954 36.954 0 0 0 7.399-6.488 35.834 35.834 0 0 0 8.472-18.403c.288-1.98.324-2.562.324-5.244 0-2.68-.036-3.265-.324-5.242C69.72 17.248 60.098 5.89 47.051 1.68A37.794 37.794 0 0 0 39.554.111a99.358 99.358 0 0 0-4.837-.11h-.003Zm12.208 21.652c1.041 0 1.224.015 1.458.141a1.418 1.418 0 0 1 .711.831c.054.18.069 4.095.054 12.913l-.018 12.654-2.232-3.42-2.238-3.42v-9.199c0-5.946.03-9.291.069-9.45a1.433 1.433 0 0 1 .699-.888c.288-.15.39-.162 1.5-.162h-.003Z"/></svg>